<svg xmlns="http://www.w3.org/2000/svg" viewBox="0 0 800 560" width="800" height="560" role="img" aria-label="Illustration croissance Pirabel Labs">
<rect width="800" height="560" fill="#141414"/>
<rect x="110" y="90" width="580" height="380" rx="18" fill="#1c1c1c" stroke="#2a2a2a" stroke-width="2"/>
<g fill="#242424">
<rect x="170" y="330" width="70" height="90" rx="6"/>
<rect x="270" y="280" width="70" height="140" rx="6"/>
<rect x="370" y="230" width="70" height="190" rx="6"/>
<rect x="470" y="180" width="70" height="240" rx="6"/>
</g>
<rect x="170" y="330" width="70" height="90" rx="6" fill="#FF5500" opacity=".35"/>
<rect x="270" y="280" width="70" height="140" rx="6" fill="#FF5500" opacity=".55"/>
<rect x="370" y="230" width="70" height="190" rx="6" fill="#FF5500" opacity=".75"/>
<rect x="470" y="180" width="70" height="240" rx="6" fill="#FF5500"/>
<g fill="none" stroke="#fff" stroke-width="5" stroke-linecap="round" stroke-linejoin="round" opacity=".9">
<path d="M190 300 L305 250 L405 200 L560 140"/>
<path d="M520 140 L560 140 L560 180"/>
</g>
</svg>
